<svg width="16" height="16" viewBox="0 0 16 16" fill="none" xmlns="http://www.w3.org/2000/svg">
<path d="M8 0C3.58889 0 0 3.58889 0 8C0 12.4111 3.58889 16 8 16C12.4111 16 16 12.4111 16 8C16 3.58889 12.4111 0 8 0ZM6.05289 1.21617C5.38304 1.98677 4.8448 3.14784 4.50952 4.5581C3.62716 4.41398 2.84407 4.21399 2.21097 3.96766C3.12789 2.65589 4.47789 1.66912 6.05286 1.21623L6.05289 1.21617ZM7.17643 0.991172C7.35511 0.970583 7.53525 0.955878 7.71761 0.948525V4.82203C6.79334 4.81174 5.90291 4.74997 5.08232 4.64262C5.51761 2.87277 6.27865 1.51622 7.17643 0.99123V0.991172ZM7.71761 5.38684V7.71776H4.69474C4.71092 6.831 4.80356 5.97952 4.95944 5.19428C5.81973 5.30972 6.75134 5.37589 7.71746 5.38692L7.71761 5.38684ZM7.71761 8.28247V10.6134C6.75144 10.6244 5.81982 10.6906 4.95959 10.806C4.8037 10.0215 4.71106 9.16926 4.69489 8.28254L7.71761 8.28247ZM7.71761 11.1781V15.0516C7.53526 15.0442 7.35511 15.0303 7.17643 15.0089C6.27865 14.4832 5.51761 13.1266 5.08232 11.3568C5.90291 11.2502 6.79334 11.1884 7.71761 11.1781V11.1781ZM6.05289 14.7839C4.47789 14.331 3.12715 13.345 2.21101 12.0325C2.8441 11.7862 3.62718 11.5862 4.50955 11.4421C4.84484 12.8523 5.38381 14.0133 6.05293 14.784L6.05289 14.7839ZM9.94711 14.7839C10.617 14.0133 11.1552 12.8523 11.4905 11.442C12.3728 11.5861 13.1559 11.7861 13.789 12.0324C12.8721 13.3442 11.5221 14.331 9.94714 14.7839L9.94711 14.7839ZM8.82357 15.0089C8.64489 15.0295 8.46475 15.0442 8.28239 15.0516V11.1781C9.20666 11.1884 10.0971 11.2501 10.9177 11.3575C10.4824 13.1273 9.72136 14.4839 8.82357 15.0089V15.0089ZM8.28239 10.6133V8.28233H11.3053C11.2891 9.16909 11.1964 10.0206 11.0406 10.8058C10.1803 10.6904 9.24866 10.6242 8.28254 10.6132L8.28239 10.6133ZM8.28239 7.71763V5.38671C9.24856 5.37568 10.1802 5.3095 11.0404 5.19407C11.1963 5.97937 11.2889 6.83083 11.3051 7.71755L8.28239 7.71763ZM8.28239 4.82201V0.948499C8.46474 0.955852 8.64489 0.969822 8.82357 0.991145C9.72136 1.51689 10.4824 2.8735 10.9177 4.64329C10.0971 4.74991 9.20666 4.81167 8.28239 4.82196V4.82201ZM9.94711 1.21617C11.5221 1.6691 12.8721 2.65513 13.789 3.9676C13.1559 4.21393 12.3728 4.41393 11.4904 4.55804C11.1552 3.14775 10.6162 1.98675 9.94707 1.21611L9.94711 1.21617ZM1.90155 4.45156C2.58244 4.72804 3.43243 4.95081 4.39191 5.10965C4.23676 5.91774 4.14558 6.79494 4.12941 7.71765H0.948612C0.995671 6.53088 1.33685 5.41835 1.90155 4.45139V4.45156ZM4.13026 8.28252C4.1457 9.20531 4.23688 10.0825 4.39275 10.8905C3.43319 11.0493 2.58319 11.2721 1.9024 11.5486C1.33769 10.5817 0.995784 9.46993 0.949459 8.28235L4.13026 8.28252ZM14.0986 11.5488C13.4178 11.2723 12.5678 11.0495 11.6083 10.8907C11.7634 10.0826 11.8546 9.2054 11.8708 8.28269H15.0523C15.0045 9.46946 14.6634 10.582 14.0987 11.549L14.0986 11.5488ZM11.8699 7.71782C11.8545 6.79503 11.7633 5.91782 11.6074 5.10982C12.567 4.95099 13.417 4.72821 14.0978 4.45173C14.6625 5.41864 15.0044 6.53041 15.0515 7.71799L11.8699 7.71782Z" fill="white"/>
</svg>
