<svg id="Layer_1" data-name="Layer 1" xmlns="http://www.w3.org/2000/svg" viewBox="0 0 65.11 29"><defs><style>.cls-1{fill:#fff;fill-rule:evenodd;}</style></defs><path class="cls-1" d="M24,13.21V6.59h2.41a3,3,0,0,1,1.14.22,1.66,1.66,0,0,1,1,1.5A1.53,1.53,0,0,1,27.7,9.7a1.42,1.42,0,0,1,1.21,1.5,1.89,1.89,0,0,1-1.47,1.86,3.7,3.7,0,0,1-1.24.15Zm3-5.49a1.59,1.59,0,0,0-.62-.11H25.06V9.33h1.18A1.3,1.3,0,0,0,27,9.18a.76.76,0,0,0,.4-.69.87.87,0,0,0-.44-.77Zm.33,2.75a1.65,1.65,0,0,0-.73-.11H25.06v1.83h1.36a2,2,0,0,0,.84-.15.81.81,0,0,0,.48-.81.75.75,0,0,0-.48-.76Zm8.24,2.74V6.59h1.13v6.62Zm8.23,0V6.59h1.14v6.62Zm4.76-6.66a4.76,4.76,0,0,1,1.87.37V8a4,4,0,0,0-1.83-.47c-.62,0-1.17.18-1.17.69,0,1.36,3.4.81,3.4,3,0,1.25-1,2-2.56,2A4.37,4.37,0,0,1,46,12.65l.47-.92a3.58,3.58,0,0,0,1.8.52c.69,0,1.32-.26,1.32-.85,0-1.42-3.37-.8-3.37-3,0-1.21,1-1.87,2.34-1.87Zm7.58,6.66V10.36H52.88v2.85H51.8V6.59h1.13v2.7h3.19V6.59H57.2v6.62ZM26.46,14.35a4.25,4.25,0,0,1,1.83.4L28,15.7a3.07,3.07,0,0,0-1.4-.33,2.12,2.12,0,0,0-2,2.23.37.37,0,0,1,0,.11,2.11,2.11,0,0,0,1.82,2.36l.18,0a3.07,3.07,0,0,0,1.4-.33l.33.95a4.26,4.26,0,0,1-1.83.41c-2,0-3.12-1.39-3.12-3.37a3.13,3.13,0,0,1,2.83-3.39Zm24.74,0a4,4,0,0,1,1.83.4l-.33.95a3.16,3.16,0,0,0-1.39-.33,2.11,2.11,0,0,0-2,2.2.71.71,0,0,1,0,.14,2.11,2.11,0,0,0,1.82,2.36l.18,0a3.16,3.16,0,0,0,1.39-.33l.33.95a4,4,0,0,1-1.83.41c-2,0-3.11-1.39-3.11-3.37a3.12,3.12,0,0,1,2.81-3.39ZM34.73,17.71a3.13,3.13,0,0,1-2.83,3.4h-.28a3.1,3.1,0,0,1-3.13-3.07c0-.1,0-.2,0-.3a3.13,3.13,0,0,1,2.83-3.39h.29a3.07,3.07,0,0,1,3.13,3C34.75,17.48,34.74,17.6,34.73,17.71Zm-1.17,0a2.08,2.08,0,0,0-1.8-2.33h-.14c-1.1,0-1.94.92-1.94,2.38s.84,2.34,1.94,2.34S33.56,19.18,33.56,17.71Zm1.94.81v-4.1h1.13v4.13a1.36,1.36,0,0,0,1.13,1.54,1.41,1.41,0,0,0,.41,0A1.35,1.35,0,0,0,39.71,19a1.41,1.41,0,0,0,0-.41V14.42H40.8v4.1a2.35,2.35,0,0,1-2.67,2.6,2.36,2.36,0,0,1-2.66-2,2.33,2.33,0,0,1,0-.59ZM43,16.21h0a6.46,6.46,0,0,1,0,.88V21H41.8V14.42H43l3,4.5h0A6.46,6.46,0,0,1,46,18V14.42h1.14V21h-1ZM54,21V14.42h1.13V21Zm2.16,0V14.42H57.2V20h2.6v1ZM42.85,6.62H37.51v1h2.12v5.56H40.8V7.65h2.08Zm-9.37,6.59c-1-2-1.21-2.56-1.61-2.56H30.8v2.56H29.68V6.62h2.23c1.72,0,2.34.88,2.34,1.87A1.66,1.66,0,0,1,33,10.21c.3.18.63.8,1.72,3ZM32,7.61H30.8v2h1.14c.8,0,1.17-.4,1.17-1S32.8,7.61,32,7.61Z"/><path class="cls-1" d="M12.88,9.77A3.79,3.79,0,1,1,9.07,6a3.79,3.79,0,0,1,3.81,3.77Zm8,0a3.76,3.76,0,0,1-3.75,3.77h0a3.77,3.77,0,1,1,3.77-3.78Zm-8,8.09a3.79,3.79,0,1,1-3.81-3.77,3.79,3.79,0,0,1,3.81,3.77Zm8,0a3.76,3.76,0,0,1-3.75,3.77h0a3.76,3.76,0,0,1-3.77-3.75h0A3.77,3.77,0,0,1,17.1,14.1h0A3.76,3.76,0,0,1,20.88,17.86Z"/></svg>