<svg id="Layer_1" data-name="Layer 1" xmlns="http://www.w3.org/2000/svg" viewBox="0 0 114.38 29"><defs><style>.cls-1{fill:#fff;}.cls-2{fill:#b3b3b3;}</style></defs><path class="cls-1" d="M68.17,6.72h-.88L65,12.36h1.14L66.68,11h2.11l.58,1.41h1.17ZM67,10.12,67.44,9a9.18,9.18,0,0,0,.31-.88h0a6.8,6.8,0,0,0,.31.86l.42,1.12Z"/><path class="cls-1" d="M79.64,8.22a1.92,1.92,0,0,0-2,1.91,1.48,1.48,0,0,0,0,.21,2,2,0,0,0,1.88,2.11h.31a3.21,3.21,0,0,0,1.51-.37l-.33-.7a2.09,2.09,0,0,1-1.06.27,1.09,1.09,0,0,1-1.22-1v0h2.74V10.4c0-1.35-.69-2.17-1.89-2.17m-.85,1.7A.86.86,0,0,1,79.58,9h0a.83.83,0,0,1,.81.84v.08Z"/><path class="cls-1" d="M98.29,8.22a1.92,1.92,0,0,0-1.94,1.9.81.81,0,0,0,0,.22,2,2,0,0,0,1.88,2.11h.31a3.17,3.17,0,0,0,1.5-.37l-.32-.7a2.17,2.17,0,0,1-1.08.27,1.08,1.08,0,0,1-1.21-.94v-.06h2.75V10.4c0-1.35-.7-2.17-1.9-2.17m-.85,1.7A.86.86,0,0,1,98.22,9h.07a.84.84,0,0,1,.83.85v.07Z"/><path class="cls-1" d="M106.88,7.09l-1.06.3v.94h-.76v.79h.76v2.24c0,.67.45,1.08,1.22,1.08a2.64,2.64,0,0,0,1.25-.32l-.32-.7a1.28,1.28,0,0,1-.65.21c-.28,0-.42-.14-.42-.51v-2h.39a.71.71,0,0,0,.68-.35l.22-.41h-1.32V7.09Z"/><path class="cls-1" d="M75.79,8.22c-1,0-1.61.51-1.61,1.22,0,1.36,2,1.09,2,1.78,0,.31-.32.42-.74.42a2.18,2.18,0,0,1-1.17-.33v.1l-.19.67a3.11,3.11,0,0,0,1.47.34c.93,0,1.75-.37,1.75-1.25,0-1.41-2-1.15-2-1.79,0-.28.24-.38.61-.38a3.47,3.47,0,0,1,1,.19l.2-.73V8.39a4.62,4.62,0,0,0-1.27-.17"/><path class="cls-1" d="M83.67,8.22c-1,0-1.63.51-1.63,1.22,0,1.36,2,1.09,2,1.78,0,.31-.33.42-.75.42a2.19,2.19,0,0,1-1.12-.3l-.22.8a3.45,3.45,0,0,0,1.42.3c.92,0,1.75-.37,1.75-1.25,0-1.41-2-1.15-2-1.8,0-.27.25-.37.61-.37a2.86,2.86,0,0,1,1,.19l.2-.75h0a3.78,3.78,0,0,0-1.28-.21"/><path class="cls-1" d="M87.29,8.22c-1,0-1.63.51-1.63,1.22,0,1.36,2,1.09,2,1.78,0,.31-.32.42-.74.42a2.26,2.26,0,0,1-1.14-.3l-.22.8a3.47,3.47,0,0,0,1.42.32c.94,0,1.75-.38,1.75-1.26,0-1.4-2-1.15-2-1.79,0-.27.24-.37.61-.37a3.44,3.44,0,0,1,1,.17l.21-.77h0a3.42,3.42,0,0,0-1.26-.22"/><path class="cls-1" d="M72.29,8.22c-1,0-1.61.51-1.61,1.22,0,1.36,2,1.09,2,1.78,0,.31-.32.42-.74.42a2.18,2.18,0,0,1-1.17-.33h0l.4,1a3.31,3.31,0,0,0,.83.1c.92,0,1.75-.37,1.75-1.25,0-1.41-2-1.15-2-1.8,0-.27.24-.37.61-.37a2.86,2.86,0,0,1,1,.19l.2-.75h0a3.46,3.46,0,0,0-1.27-.21"/><path class="cls-1" d="M89.29,8.16h0v4.19h1V9.51a1.82,1.82,0,0,1,1-.41c.56,0,.63.39.63.87v2.39H93V9.51a1.68,1.68,0,0,1,1-.41c.56,0,.66.38.66.85v2.41h1.07V9.68a1.32,1.32,0,0,0-1.15-1.46h-.27a2.64,2.64,0,0,0-1.55.63,1.19,1.19,0,0,0-1.13-.63,2.37,2.37,0,0,0-1.44.56h0a.83.83,0,0,0-.39-.35l-.51-.26Z"/><path class="cls-1" d="M100.79,8.16h0v4.19h1.07V9.53a1.65,1.65,0,0,1,1-.43c.56,0,.66.41.66.9v2.36h1.08V9.68a1.29,1.29,0,0,0-1.08-1.46h-.23a2.45,2.45,0,0,0-1.47.56h0a.85.85,0,0,0-.39-.36l-.55-.25Z"/><path class="cls-1" d="M26.51,6.65a2.94,2.94,0,0,0-3.15,2.7v.23A2.72,2.72,0,0,0,26,12.42a2.84,2.84,0,0,0,.41,0A4.12,4.12,0,0,0,28.21,12a1.43,1.43,0,0,1-.26-.83,2.84,2.84,0,0,1-1.45.39,1.87,1.87,0,0,1-2-1.73,1.22,1.22,0,0,1,0-.27,1.9,1.9,0,0,1,1.81-2h.19A3.46,3.46,0,0,1,28,7.91v-1a4,4,0,0,0-1.57-.29"/><path class="cls-1" d="M41.19,6.24H40.11v5.84a3.2,3.2,0,0,0,1.4.29,2.27,2.27,0,0,0,2.54-2c0-.09,0-.18,0-.27a1.91,1.91,0,0,0-1.8-2H42a3.32,3.32,0,0,0-.83.11Zm.49,5.29a1.57,1.57,0,0,1-.49-.07V9.12A1.57,1.57,0,0,1,41.84,9,1.08,1.08,0,0,1,43,10v.16a1.24,1.24,0,0,1-1.12,1.34h-.15"/><path class="cls-1" d="M53.79,6.28H52.71V8.22a3.9,3.9,0,0,0-.58-.05,2.18,2.18,0,0,0-2.34,2v.16c0,1.34,1,2.07,2.43,2.07a3.86,3.86,0,0,0,1.57-.31ZM52.2,11.56a1.18,1.18,0,0,1-1.3-1.05.61.61,0,0,1,0-.19A1.2,1.2,0,0,1,52,9h.19a1.5,1.5,0,0,1,.51.07v2.4a1.79,1.79,0,0,1-.51.07"/><path class="cls-1" d="M60.53,8.19a1.92,1.92,0,0,0-1.94,1.9.81.81,0,0,0,0,.22,2,2,0,0,0,1.88,2.11h.31a3,3,0,0,0,1.5-.41L62,11.31a2.07,2.07,0,0,1-1.08.27,1.1,1.1,0,0,1-1.22-1v0h2.74v-.23c0-1.36-.68-2.17-1.88-2.17m-.84,1.68a.83.83,0,1,1,1.65-.18v.18Z"/><path class="cls-1" d="M30.29,8.19a3.55,3.55,0,0,0-1.66.41l.35.66A2.52,2.52,0,0,1,30.1,9c.49,0,.83.2.83.68v.11H30.2a2.59,2.59,0,0,0-1.1.24,1.15,1.15,0,0,0-.73,1.1,1.3,1.3,0,0,0,1.3,1.3h.12A1.85,1.85,0,0,0,31,11.94h.08a.77.77,0,0,0,.31.22l.56.27h0V10.05h0v-.4c0-1-.57-1.46-1.72-1.46m-.19,3.42c-.39,0-.63-.2-.63-.56a.48.48,0,0,1,.27-.46,1.48,1.48,0,0,1,.63-.13h.56v.88a1.46,1.46,0,0,1-.83.29"/><path class="cls-1" d="M32.83,8.09h0v4.19h1.08V9.44a1.81,1.81,0,0,1,1-.4c.56,0,.63.39.63.86v2.39h1.08V9.44a1.67,1.67,0,0,1,1-.4c.55,0,.64.37.64.84v2.39h1.07V9.6a1.33,1.33,0,0,0-1.17-1.46H37.9a2.64,2.64,0,0,0-1.54.63,1.18,1.18,0,0,0-1.07-.63,2.37,2.37,0,0,0-1.44.56h0a.72.72,0,0,0-.39-.36l-.54-.25Z"/><path class="cls-1" d="M46.9,8.21a1.58,1.58,0,0,0-1.17.54l-.12-.46H44.7v4h1.08V9.48A1.17,1.17,0,0,1,46.71,9a1.08,1.08,0,0,1,.66.23V8.29a1.09,1.09,0,0,0-.47-.08"/><path class="cls-1" d="M48.56,6.41a.61.61,0,1,0,0,1.22.61.61,0,0,0,0-1.22m.54,1.88H48v4H49.1Z"/><path class="cls-1" d="M58.57,8H56.23A1.55,1.55,0,0,0,54.5,9.35a.61.61,0,0,0,0,.14,1.4,1.4,0,0,0,.71,1.25,1,1,0,0,0-.51.77A.53.53,0,0,0,55,12a1.1,1.1,0,0,0-.77,1c0,.69.73,1.18,2,1.18,1.49,0,2.25-.59,2.25-1.34,0-1.5-2.81-.83-2.81-1.55a.57.57,0,0,1,.1-.31,3,3,0,0,0,.52.07A1.55,1.55,0,0,0,58,9.73c0-.06,0-.11,0-.16a1.51,1.51,0,0,0-.31-.87h.12a.55.55,0,0,0,.51-.3L58.54,8V8Zm-2.28,2.29a.72.72,0,0,1-.74-.7,0,0,0,0,1,0-.05.69.69,0,0,1,.63-.74h.11a.74.74,0,0,1,.77.71v.05a.7.7,0,0,1-.67.73h-.1m.07,3.18c-.71,0-1.17-.25-1.17-.64a.64.64,0,0,1,.34-.53c.58.23,1.9.11,1.9.68,0,.29-.41.49-1.07.49"/><polygon class="cls-1" points="23.63 15.05 26.63 15.05 26.37 15.71 24.42 15.71 24.42 17.49 26.36 17.49 26.36 18.13 24.42 18.13 24.42 20.01 26.66 20.01 26.66 20.65 23.63 20.65 23.63 15.05"/><path class="cls-1" d="M27.58,16.64h.71l.1.49a2.32,2.32,0,0,1,1.47-.59,1.24,1.24,0,0,1,1.31,1.16,2.17,2.17,0,0,1,0,.26v2.69h-.87V18.2c0-.58-.14-1-.73-1a2,2,0,0,0-1.22.54v2.93h-.79Z"/><path class="cls-1" d="M31.64,21.5a1.13,1.13,0,0,1,.78-1,.56.56,0,0,1-.31-.5,1,1,0,0,1,.48-.78A1.38,1.38,0,0,1,31.91,18a1.47,1.47,0,0,1,1.51-1.45h.12a2.39,2.39,0,0,1,.83.15h.1a1.26,1.26,0,0,1,.93-.34,1.22,1.22,0,0,1,.27,0l-.19.56h-.25a.77.77,0,0,0-.37.08,1.44,1.44,0,0,1,.44,1,1.5,1.5,0,0,1-1.53,1.47H33.6a1.61,1.61,0,0,1-.54-.09.6.6,0,0,0-.2.41c0,.78,2.81.06,2.81,1.57,0,.75-.78,1.27-2.12,1.27-1.16,0-1.91-.42-1.91-1.15m3.23,0c0-.7-1.27-.56-2-.78a.84.84,0,0,0-.51.68c0,.45.51.72,1.25.72s1.25-.27,1.25-.62M34.5,18a.86.86,0,0,0-.82-.88H33.6a.81.81,0,0,0-.89.75.24.24,0,0,0,0,.12.83.83,0,0,0,.79.88h.1a.8.8,0,0,0,.89-.73.66.66,0,0,0,0-.14"/><path class="cls-1" d="M36.29,14.64h.8v5c0,.31.1.41.32.41h.27l.17.59a1.88,1.88,0,0,1-.66.12.78.78,0,0,1-.88-.65.61.61,0,0,1,0-.19V14.64Z"/><path class="cls-1" d="M38.29,15.34a.47.47,0,0,1,.47-.48h0a.48.48,0,0,1,.52.45v0a.49.49,0,0,1-.51.47h0a.47.47,0,0,1-.51-.43v0m.1,1.3h.8v4h-.8Z"/><path class="cls-1" d="M40.14,19.82a2.12,2.12,0,0,0,1.1.31c.48,0,.87-.17.87-.58,0-.81-2-.54-2-1.88,0-.64.54-1.13,1.49-1.13a3.59,3.59,0,0,1,1.12.18v.65a3,3,0,0,0-1.09-.24c-.39,0-.74.12-.74.49,0,.82,2,.53,2,1.9,0,.83-.75,1.2-1.63,1.2a2.82,2.82,0,0,1-1.37-.35Z"/><path class="cls-1" d="M43.65,14.64h.79v2.49a2.32,2.32,0,0,1,1.46-.59,1.26,1.26,0,0,1,1.31,1.19,1.85,1.85,0,0,1,0,.23v2.69h-.79V18.2c0-.58-.15-1-.75-1a2,2,0,0,0-1.22.54v2.93h-.79Z"/><path class="cls-1" d="M6.68,6.24v8c0,3.92,2.18,5,3.23,5.58.19.11,3.44,1.63,3.64,1.73l.14.07.15-.07c.19-.1,3.46-1.62,3.64-1.73,1.05-.54,3.24-1.66,3.24-5.58v-8ZM17.35,19.57c-.12.07-1.26.59-2.22,1.05v-6.3h0v6.3l-1.42.68s-.65-.32-1.41-.67h0l-2.22-1.05C9,19,7.08,18,7,14.31V6.53h5.29v5.1h0V6.53h8.14v5.1h0V14.3h0C20.39,18,18.41,19,17.35,19.57Z"/><path class="cls-1" d="M20.39,14.3V11.63H15.13V6.53H12.29v5.1H7v2.69h5.29v6.31c.76.35,1.41.67,1.41.67l1.42-.68v-6.3h0Zm-.93-2.22-.1-.11.14-.16.13.16-.1.11c0,.07,0,.61.34.8a.61.61,0,0,1-.27,0,2.81,2.81,0,0,1-.1.31,1.12,1.12,0,0,1-.1-.31h-.28c.34-.19.34-.73.34-.8ZM18.6,13l-.1-.12.13-.15.14.15-.1.12c0,.05,0,.59.32.79a.53.53,0,0,1-.25,0c0,.11-.07.21-.11.31-.06-.17-.1-.31-.1-.31h-.27c.34-.18.34-.73.34-.81Zm-.83-.94L17.65,12l.14-.16.13.16-.12.11c0,.07,0,.61.36.8a.53.53,0,0,1-.25,0c0,.11-.07.21-.11.31-.06-.17-.1-.31-.1-.31h-.27c.34-.19.34-.73.34-.8Zm-.86.94-.12-.12.13-.15.14.15-.12.12a.91.91,0,0,0,.37.79.61.61,0,0,1-.27,0,2.81,2.81,0,0,1-.1.31.87.87,0,0,1-.1-.31h-.27c.34-.18.34-.73.34-.81ZM16,12.08,15.91,12l.13-.16.14.16-.1.11c0,.07,0,.61.34.8a.57.57,0,0,1-.26,0,2.81,2.81,0,0,1-.1.31,1.12,1.12,0,0,1-.1-.31h-.27C16,12.69,16,12.15,16,12.08ZM14.37,7.29l.13-.15.14.15-.1.12a1,1,0,0,0,.33.8.53.53,0,0,1-.25,0c0,.1-.06.2-.1.3a1.76,1.76,0,0,1-.1-.3h-.27a1,1,0,0,0,.33-.8Zm.11,2.88-.11-.12.13-.15.14.15-.1.12a1,1,0,0,0,.33.8.53.53,0,0,1-.25,0c0,.1-.06.2-.1.3a1.76,1.76,0,0,1-.1-.3h-.27A1,1,0,0,0,14.48,10.17Zm-.81-1.39-.1-.12.14-.15.13.15-.1.12a.86.86,0,0,0,.32.8.53.53,0,0,1-.25,0c0,.1-.07.2-.1.3-.07-.17-.11-.3-.11-.3h-.27C13.67,9.39,13.67,8.85,13.67,8.78Zm-.91-1.49.13-.15.14.15-.1.12a1,1,0,0,0,.33.8.53.53,0,0,1-.25,0c0,.1-.06.2-.1.3a1.76,1.76,0,0,1-.1-.3h-.27a1,1,0,0,0,.34-.8Zm.12,2.88-.12-.12.13-.15.14.15-.1.12a1,1,0,0,0,.33.8A.53.53,0,0,1,13,11c0,.1-.06.2-.1.3a1.76,1.76,0,0,1-.1-.3h-.27A1,1,0,0,0,12.88,10.17ZM8,12.88a2.81,2.81,0,0,1-.1.31,1.12,1.12,0,0,1-.1-.31H7.51c.34-.19.34-.73.34-.8L7.74,12l.14-.16L8,12l-.1.11c0,.07,0,.61.34.8A.61.61,0,0,1,8,12.88Zm.86.93a2.81,2.81,0,0,1-.1.31c-.06-.17-.1-.31-.1-.31H8.37c.36-.18.34-.73.34-.79l-.1-.12.13-.15.14.15-.1.12c0,.05,0,.59.34.79A.66.66,0,0,1,8.84,13.81Zm.89-.93c0,.11-.07.21-.11.31-.06-.17-.1-.31-.1-.31H9.25c.34-.19.34-.73.34-.8L9.47,12l.14-.16.13.16-.1.11c0,.07,0,.61.34.8A.53.53,0,0,1,9.73,12.88Zm.83.93c0,.11-.07.21-.11.31-.06-.17-.1-.31-.1-.31H10.1c.34-.18.34-.73.34-.79l-.1-.12.13-.15.14.15L10.5,13c0,.05,0,.59.33.79A.61.61,0,0,1,10.56,13.81Zm.88-.93c0,.11-.07.21-.11.31-.06-.17-.1-.31-.1-.31H11c.34-.19.34-.73.34-.8L11.2,12l.13-.16.14.16-.1.11c0,.07,0,.61.34.8A.61.61,0,0,1,11.44,12.88ZM13,20a2.81,2.81,0,0,1-.1.31,1.12,1.12,0,0,1-.1-.31,1.22,1.22,0,0,1-.27,0c.34-.19.34-.73.34-.8l-.12-.11.13-.16.14.16-.1.11c0,.07,0,.61.33.8A.53.53,0,0,1,13,20Zm0-2.76c0,.1-.06.2-.1.3a1.18,1.18,0,0,1-.1-.3,1.22,1.22,0,0,1-.27,0c.34-.19.34-.73.34-.8l-.12-.11.13-.16.14.16-.1.11c0,.07,0,.61.33.8a.71.71,0,0,1-.25,0Zm.8,1.39c0,.1-.07.2-.1.3-.07-.17-.11-.3-.11-.3a1.22,1.22,0,0,1-.27,0c.34-.19.34-.73.34-.8l-.1-.12.14-.15.13.15-.1.12a.88.88,0,0,0,.32.8.53.53,0,0,1-.25,0Zm0-2.76c0,.1-.07.2-.1.3-.07-.17-.11-.3-.11-.3a1.22,1.22,0,0,1-.27,0c.34-.19.34-.73.34-.8l-.1-.12.14-.15.13.15-.1.12a.88.88,0,0,0,.32.8.53.53,0,0,1-.25,0ZM14.62,20a2.81,2.81,0,0,1-.1.31,1.12,1.12,0,0,1-.1-.31,1.22,1.22,0,0,1-.27,0c.33-.19.33-.73.33-.8l-.11-.11.13-.16.14.16-.1.11c0,.07,0,.61.33.8A.53.53,0,0,1,14.62,20Zm0-2.76c0,.1-.06.2-.1.3a1.18,1.18,0,0,1-.1-.3,1.22,1.22,0,0,1-.27,0c.33-.19.33-.73.33-.8l-.11-.11.13-.16.14.16-.1.11c0,.07,0,.61.33.8a.71.71,0,0,1-.25,0Zm.2-3.25v.85h-.53V14H13v.85h-.5V14h-.43V11.81h.48a.24.24,0,0,1,.23-.15.27.27,0,0,1,.26.15h.39a.24.24,0,0,1,.25-.15.28.28,0,0,1,.24.15h.38a.26.26,0,0,1,.24-.15.32.32,0,0,1,.24.14h.52V14Z"/><path class="cls-2" d="M9.17,6.94V7h0l.12,0h.07v.06c0,.09.07.12.07.16V7.3a.25.25,0,0,1,.2.27.71.71,0,0,1-.17.36c-.08.08-.08.1-.08.17,0,.3.24.49.64.49h.31a1.66,1.66,0,0,1,.49.07,1.3,1.3,0,0,0,.34.08h0c0-.07-.1-.1-.47-.2-.74-.21-1-.48-1-.95A.63.63,0,0,1,10.32,7H9Z"/><path class="cls-2" d="M7.91,7.65v.08A.4.4,0,0,1,8.1,8,.62.62,0,0,1,8,8.31l-.08.13v.14A.38.38,0,0,0,8,8.83c.07.12.12.16.2.16s.22-.19.22-.41V8h0l-.1-.1a.62.62,0,0,1-.22-.39.21.21,0,0,1,.21-.22h.13c0-.18,0-.32.1-.32h0L8.6,7l.11.07h0V7h0V7H7.18V7a1.35,1.35,0,0,1,.22.14C7.83,7.33,7.88,7.41,7.91,7.65Z"/><path class="cls-2" d="M7.69,10.05a.74.74,0,0,1,.21,0h.2c.1,0,.2-.08.32-.28s.09-.16.09-.22,0-.17-.14-.17a.28.28,0,0,0-.2.08L8.1,9.6v.05h0v.07a1,1,0,0,1-.28-.25.42.42,0,0,1-.16-.36c-.16-.18-.19-.25-.19-.39v0l-.09-.12v1.59l.06-.07A.55.55,0,0,1,7.69,10.05Z"/><path class="cls-2" d="M11.62,6.94a.66.66,0,0,1,.12.27.23.23,0,0,1-.15.22.45.45,0,0,1-.39.2,1.38,1.38,0,0,1-.63-.24.65.65,0,0,0-.22-.08.11.11,0,0,0-.13.11h0c0,.07,0,.1.18.15a.54.54,0,0,1,.32.17.75.75,0,0,1,.48.19c.39.11.64.37.64.66a.47.47,0,0,1-.45.49h0L11.13,9v.2c.07.24.1.3.22.3s.14,0,.15-.08V9.34h0a.19.19,0,0,1,.07.15V9.7a.54.54,0,0,1,0,.18v.39a1.13,1.13,0,0,1,0,.26v.28a.43.43,0,0,0,0,.16h0v0h-.08l-.11,0-.1-.07c-.08.07-.12.09-.34.14h-.17v-.19a1,1,0,0,1,0-.24h-.25v-.19l.12-.12.11-.07h.17a.14.14,0,0,0,.16-.14c0-.07,0-.1-.14-.13l-.19-.07-.17-.08c-.1-.06-.11-.07-.15-.07v.07a.13.13,0,0,0,.12.13h0V10c0,.07,0,.14-.15.26h0a.67.67,0,0,1-.23.34h-.06l-.08.1-.12.1-.09.09V11h0s-.07,0-.1-.1L9.7,10.8H9.39a.66.66,0,0,0-.25,0h0a.62.62,0,0,1,.13-.34.49.49,0,0,1,.12-.13.25.25,0,0,0-.12-.16H9.19s0-.05.1-.08a.59.59,0,0,1,.26-.07.37.37,0,0,1,.22.08c.12.09.15.1.22.1a.18.18,0,0,0,.18-.17c0-.06,0-.11-.11-.22a.5.5,0,0,1-.17-.33.31.31,0,0,1,0-.21V9.26h0l-.08,0a.82.82,0,0,0-.32.12l-.09.08H9.5l-.08.12-.19.19v.12A1.12,1.12,0,0,1,9,10H9v.05l-.06.09-.11.13-.11.12a.47.47,0,0,0-.12.27.18.18,0,0,1-.09.16h0a.43.43,0,0,0-.2-.15H8.21l-.11.05H7.93a.36.36,0,0,0-.26.14h0v-.05h0v-.12a.06.06,0,0,1,0-.06h0a.31.31,0,0,1,.07-.21l.06-.11v-.07c0-.1-.1-.18-.24-.2h0v1H12.1V6.87h-.34A.27.27,0,0,1,11.62,6.94Z"/><path class="cls-2" d="M12.29,6.53H7v5.1h5.29ZM12,11.34H7.29V8.24a.09.09,0,0,1,0-.07V8.09l-.07-.15V7.85s0-.07.17-.1V7h0V6.82H9v.06h2.88Z"/><path class="cls-2" d="M11.17,7h.1c.06,0,.09,0,.09-.13H11Z"/><path class="cls-2" d="M7.35,6.87H7.29V7h.06Z"/><path class="cls-2" d="M11.93,6.83h0v4.4H7.39v-1h0V8.63a.25.25,0,0,1,0-.17V8.34a.17.17,0,0,1,0-.1v3.1h4.67V6.82h-.13Z"/><path class="cls-2" d="M7.34,7.41V7.28a.33.33,0,0,0,0-.14v.27Z"/><rect class="cls-2" x="11.89" y="6.83" width="0.03" height="0.03"/><path class="cls-2" d="M15.62,7.75h0V7.26a.33.33,0,0,0,0-.14l0-.1h0a3.28,3.28,0,0,1,.44.32.74.74,0,0,1,.15.45.36.36,0,0,1,.19.32.75.75,0,0,1-.09.25c0,.09-.08.12-.08.14v.13a.62.62,0,0,0,.09.26c.07.11.13.15.2.15s.18-.12.21-.28h0a.76.76,0,0,1,0-.3V8l-.15-.19a.56.56,0,0,1-.22-.41.21.21,0,0,1,.23-.2h.09V7.12h0a.11.11,0,0,1,0-.08h0c0-.08,0-.1.07-.1h0l.09.07.1.06V6.92H15.26v.94Z"/><path class="cls-2" d="M17.54,7h.14v.07c.05.09.07.1.07.15v.09c.15,0,.2.12.2.27a.51.51,0,0,1-.17.35.21.21,0,0,0-.08.19c0,.31.23.48.64.48h.29a1.38,1.38,0,0,1,.49.06,1,1,0,0,0,.34.09h.08c0-.07-.1-.1-.47-.21-.75-.2-1-.47-1-.94a.66.66,0,0,1,.7-.63H17.33A.2.2,0,0,1,17.54,7Z"/><path class="cls-2" d="M19.85,11l-.1-.07a.28.28,0,0,1-.2.1l-.24.07h-.07a.27.27,0,0,1-.06-.16.53.53,0,0,1,0-.25h-.25a.4.4,0,0,1,.07-.18.35.35,0,0,1,.22-.19h.17a.14.14,0,0,0,.15-.14c0-.07,0-.1-.14-.14L19.22,10,19,9.89l-.1-.05h-.05l-.07.07a.14.14,0,0,0,.14.14H19v0a.79.79,0,0,1-.1.27l0,.07v.05a.81.81,0,0,1-.24.34h-.05v.05l-.09.11-.12.1-.08.08-.05.07h0s-.06,0-.1-.1l-.07-.07h-.3a.58.58,0,0,0-.26.06h0v-.07a.73.73,0,0,1,.25-.47.18.18,0,0,0-.11-.15h-.09a.15.15,0,0,1,.11-.08.62.62,0,0,1,.23-.07.54.54,0,0,1,.24.09c.12.08.15.1.22.1a.19.19,0,0,0,.19-.17c0-.07,0-.12-.12-.22a.56.56,0,0,1-.17-.36.35.35,0,0,1,.1-.25V9.43h-.27c-.14.07-.22.12-.22.15h0l-.08.12a1.07,1.07,0,0,1-.19.18l0,0V10a1.7,1.7,0,0,1-.19.19h-.07v.05a1.84,1.84,0,0,1-.17.22l-.12.12a.66.66,0,0,0-.12.27c0,.1-.06.15-.08.15h0a.51.51,0,0,0-.21-.15h0l-.28.15h-.17a.3.3,0,0,0-.25.13h0a.24.24,0,0,0,0-.12v0h0A.38.38,0,0,1,16,10.6v-.06c0-.1-.1-.17-.23-.2h0l.08-.1a.43.43,0,0,1,.27-.1h.41c.1,0,.2-.08.32-.29A.43.43,0,0,0,17,9.63a.16.16,0,0,0-.13-.17h0a.25.25,0,0,0-.19.09l-.06.13V9.8s-.08,0-.15-.12l-.12-.13c-.13-.15-.17-.2-.17-.36A.53.53,0,0,1,16,8.8V8.75c-.11-.12-.14-.17-.14-.29V8.34a.32.32,0,0,1-.09-.17V8.09l-.07-.15h0V11.3h4.54v-.18h-.09Z"/><path class="cls-2" d="M19.5,9v.24c.07.24.1.3.22.3a.14.14,0,0,0,.15-.08V9.38h0a0,0,0,0,1,.05,0V9a.52.52,0,0,1-.29.09Z"/><path class="cls-2" d="M19.55,7.66a1.46,1.46,0,0,1-.61-.23c-.1,0-.15-.09-.2-.09s-.14,0-.14.12,0,.1.19.15a.74.74,0,0,1,.32.17.92.92,0,0,1,.47.19,1,1,0,0,1,.46.25V7.37l-.1.09A.45.45,0,0,1,19.55,7.66Z"/><path class="cls-2" d="M20,7.07v-.2h-.15L20,7Z"/><path class="cls-2" d="M20.39,11.63h0V6.53H15.11v5.1Zm-5-4.81h1.9v.07H20V8.3a.63.63,0,0,1,.12.33A.53.53,0,0,1,20,9v2.39H15.31Z"/><path class="cls-2" d="M19.51,7h.11c.06,0,.08,0,.1-.15h-.83a1.35,1.35,0,0,1,.44.07Z"/><path class="cls-2" d="M20,6.87Z"/><path class="cls-2" d="M20.09,10.05v0Z"/><path class="cls-2" d="M20.11,10.2a.81.81,0,0,1,0,.31,1.5,1.5,0,0,1,0,.3v.24h0v.18H15.57V7.85h0v-1h-.14v4.52h4.68Z"/><path class="cls-2" d="M20,9v.69a.54.54,0,0,1,0,.18Z"/><rect class="cls-2" x="20.04" y="6.83" width="0.03" height="0.03"/><path class="cls-2" d="M20.07,6.87h0v.2a.84.84,0,0,1,.05.17.29.29,0,0,1-.05.13v.85l.07.08V6.82h0Z"/><polygon class="cls-2" points="17.42 6.87 18.89 6.87 19.72 6.87 19.76 6.82 17.38 6.82 17.4 6.85 17.42 6.87"/><path class="cls-2" d="M12.29,14.32H7C7,18,9,19,10.08,19.59l2.21,1.05h0ZM12,20.16h0c-1.37-.66-1.66-.8-1.71-.81A6.37,6.37,0,0,1,9.62,19h0a4.18,4.18,0,0,1-.86-.7.38.38,0,0,0-.19,0h0V18.2a.61.61,0,0,1,0-.19h0a4.38,4.38,0,0,1-.76-1.43v-.2a.29.29,0,0,1,0-.13.61.61,0,0,1,0-.19.4.4,0,0,1-.09-.2,1.47,1.47,0,0,0-.1-.22h.1a4,4,0,0,1-.09-.84h4.64v0h0Z"/><path class="cls-2" d="M9.64,18.47a.53.53,0,0,0-.22-.12h0v-.08l.09-.09a.44.44,0,0,1,.25-.08.59.59,0,0,1,.25.07h.11l.08-.08a1.07,1.07,0,0,0-.14-.39.65.65,0,0,1-.08-.27c0-.15.07-.31.17-.34h-.1l-.14.05-.1.08h0v.06a.57.57,0,0,1-.22.34.45.45,0,0,1-.24.31.75.75,0,0,1-.1.2.58.58,0,0,0-.17.29v.07L9,18.42l-.06-.09a.15.15,0,0,1,0-.13H8.73a4.37,4.37,0,0,0,.79.63h0A.58.58,0,0,1,9.64,18.47Z"/><path class="cls-2" d="M9,14.68l.09.08v.09h.2l0,.17c.05.17,0,.12,0,.19a.21.21,0,0,1,.2.22h0a.69.69,0,0,1-.22.43V16c0,.37.13.49.62.54a3.39,3.39,0,0,1,.77.15,2.22,2.22,0,0,0,.37.09c.08,0,.13,0,.13-.09s-.06-.1-.42-.17c-.83-.17-1.15-.44-1.15-.95a.64.64,0,0,1,.63-.64h.05a1.17,1.17,0,0,1,.57.19c.22.12.27.15.32.15s.09,0,.09-.14l0-.08.14.08c.06.09.1.12.1.24a.34.34,0,0,1-.26.31h0a.37.37,0,0,1-.32.14.93.93,0,0,1-.41-.12l-.2-.14a.37.37,0,0,0-.22-.08c-.1,0-.15,0-.15.13a.2.2,0,0,0,.15.19l.2.07a.52.52,0,0,1,.19.08h.1a.84.84,0,0,1,.37.09h.2a.64.64,0,0,1,.46.59.49.49,0,0,1-.47.49h-.07a.67.67,0,0,1,0,.2v.19c0,.19.06.27.18.27h.1l.06-.05h0v.11a.61.61,0,0,0,0,.19v.17a.67.67,0,0,1,0,.2.75.75,0,0,1,.05.26.29.29,0,0,1-.05.2v.29a.67.67,0,0,0,0,.2h0l-.07-.05-.08.13c0,.06-.07.11-.1.16l-.09.11v.09h0c-.07,0-.15-.16-.24-.43a.11.11,0,0,0-.1-.12l-.06.05v.07h0a.49.49,0,0,1-.11-.14.34.34,0,0,1,0-.2c0-.13.1-.24.42-.39a.35.35,0,0,0,.19-.32A.31.31,0,0,0,11.1,18c-.11-.07-.16-.1-.21-.1l-.08.07.08.08c.07,0,.1,0,.1.07a.53.53,0,0,1-.08.15.47.47,0,0,1-.14.14c0,.12-.08.18-.22.27a.53.53,0,0,1-.08.15l-.1.12-.07.14v.06a.72.72,0,0,1-.19-.15L10,18.86a.44.44,0,0,1-.15.05H9.77l.62.35,1.66.78V14.66H9.15Z"/><path class="cls-2" d="M8.44,17.64h0a.53.53,0,0,1,.37-.2.28.28,0,0,1,.2.1l.14.07h.07v-.07A.46.46,0,0,0,9,17.25a.56.56,0,0,0-.27-.08.31.31,0,0,0-.29.15v.1h0l-.16-.11-.12-.12-.06-.12V17h0A.13.13,0,0,1,8,17,4.19,4.19,0,0,0,8.64,18h0a.76.76,0,0,1,.09-.18Z"/><path class="cls-2" d="M7.54,15.45v-.11a.61.61,0,0,1,0-.19v-.22h0a.49.49,0,0,1,.18.11.67.67,0,0,1,.28.41v.24l.07.17s0,.05-.09.15a.27.27,0,0,0-.08.19.53.53,0,0,0,.08.27.23.23,0,0,0,.17.13c.1,0,.14-.08.16-.3a.86.86,0,0,1,0-.32v-.16l-.14-.15A.37.37,0,0,1,8,15.35a.19.19,0,0,1,.18-.2h0V15a.18.18,0,0,1,.09-.15h.08l.09,0a.47.47,0,0,1,.06-.15.32.32,0,0,1,.1-.1H7.09a5.29,5.29,0,0,0,.08.8h.1Z"/><path class="cls-2" d="M8.72,18.22H8.65a4.18,4.18,0,0,0,.86.7v-.07A4.37,4.37,0,0,1,8.72,18.22Z"/><path class="cls-2" d="M11.93,14.66h0v5.39H12V20l-1.66-.78-.62-.35H9.64c.24.15.46.27.65.37s.34.15,1.71.81h0v-5.4h0Z"/><path class="cls-2" d="M8.42,17.89a4.19,4.19,0,0,1-.6-1.07.6.6,0,0,1-.13-.28v-.05h0a.39.39,0,0,1-.12-.19v.2a4.38,4.38,0,0,0,.76,1.43h0v-.06Z"/><path class="cls-2" d="M7.51,16h0a.61.61,0,0,0,0,.19.21.21,0,0,1,0-.11Z"/><rect class="cls-2" x="11.89" y="14.64" width="0.03" height="0.02"/><path class="cls-2" d="M11.93,20.11h0v.06Z"/><path class="cls-2" d="M7.36,14.66h4.49v-.05H7.29a4,4,0,0,0,.09.84h.06A5.29,5.29,0,0,1,7.36,14.66Z"/><path class="cls-2" d="M19,17a.36.36,0,0,0,.27.15h.18a.77.77,0,0,0,.07-.16h-.08A.74.74,0,0,1,19,17Z"/><path class="cls-2" d="M18.68,18.2h0l-.08.05h-.07l-.05.05h0s-.05,0-.07-.1v-.27a.2.2,0,0,1,0-.15.43.43,0,0,0-.16,0h0v-.22a.37.37,0,0,1,.31-.22h.18l.09-.08v-.05l-.15-.05a.35.35,0,0,1-.2-.14c-.07-.07-.09-.08-.1-.08h0V17a.89.89,0,0,1-.12.39l-.12.22a.44.44,0,0,0-.08.25.17.17,0,0,0,.08.17h.07l-.09.11a.34.34,0,0,1-.22.15.39.39,0,0,1-.3.24h0a.39.39,0,0,1-.25.17h0a.48.48,0,0,1-.15.22l-.1.07h0l-.07.07c-.05,0-.08,0-.12-.12h0l-.09.05h-.15a.35.35,0,0,0-.22.1v.07h0l-.05-.07a.49.49,0,0,1,0-.24.47.47,0,0,1,.22-.4h0a.39.39,0,0,1,.4-.39h.21a.37.37,0,0,0,.24-.1c.1-.09.14-.14.14-.24a.89.89,0,0,0-.32.25.56.56,0,0,1,.28-.71l.09-.1h-.05l-.1.06h-.15v.05l-.07.09a.37.37,0,0,1-.18.17.32.32,0,0,1-.22.22c-.09.15-.15.22-.31.23a.33.33,0,0,1-.13.19l-.05.07,0,.07-.11-.07v-.12h-.19l-.19.1,0,.07h0a.39.39,0,0,1-.07-.22.32.32,0,0,1,.07-.25l.12-.17v-.12l-.07,0h-.08l.12-.1a.37.37,0,0,1,.25-.09.73.73,0,0,1,.24.07l.14.08h.06c.07,0,.1,0,.16-.1a.65.65,0,0,0,.05-.2.27.27,0,0,0-.25-.27h0a.41.41,0,0,0-.24.08v.14h0a1.31,1.31,0,0,1-.12-.14l-.07-.15a.81.81,0,0,1,0-.22v-.12a.3.3,0,0,1-.09-.25.19.19,0,0,1,0-.15.26.26,0,0,1-.05-.19v-.15c0-.05,0-.09-.1-.27s0-.16-.05-.17h0a.19.19,0,0,1,.13-.05H16V15a.17.17,0,0,1,0-.1v-.22h0a.86.86,0,0,1,.39.2.48.48,0,0,1,.17.39v.09c.12.1.17.18.17.27s0,.1-.09.17a.34.34,0,0,0-.15.32c0,.22.07.34.2.34s.21-.12.22-.29v-.42a.43.43,0,0,0-.15-.26.46.46,0,0,1-.17-.32A.22.22,0,0,1,16.8,15h.09a.26.26,0,0,1,.05-.19.21.21,0,0,1,.07-.12H15.65V20l1.66-.79a6.2,6.2,0,0,0,1.55-1.09h0Z"/><path class="cls-2" d="M20.39,14.32H15.13v6.3c1-.46,2.1-1,2.22-1.05,1.06-.54,3-1.61,3.08-5.27h0Zm-.3.85a.27.27,0,0,1-.05.15,7.17,7.17,0,0,1-.18.9.54.54,0,0,1,.09.25.52.52,0,0,1-.34.46c-.06.13-.11.26-.17.38h0v.07h0l-.06.09h0a.27.27,0,0,1-.11.22h0a.38.38,0,0,1-.05.15l-.08.12-.12.17-.07.05v-.06a5.77,5.77,0,0,1-1.56,1.09s-.32.17-1.71.82h0v-5.4h1.73l.1-.07h0v.07h2.73V15A.64.64,0,0,1,20.09,15.17Z"/><path class="cls-2" d="M17.5,14.83h.07v.31h0a.21.21,0,0,1,.17.22.58.58,0,0,1-.28.44v.12c0,.34.1.4.64.47l.38.07a2.42,2.42,0,0,1,.35.12,1.08,1.08,0,0,0,.27.05l.1-.05s-.08-.1-.35-.2l-.39-.14c-.39-.15-.58-.37-.58-.71a.7.7,0,0,1,.7-.7h0a1.93,1.93,0,0,1,.53.11,1.19,1.19,0,0,0,.32.1.11.11,0,0,0,.1-.1c0-.1,0-.09.07-.09a.17.17,0,0,1,.12.1v-.22H17.17S17.48,14.74,17.5,14.83Z"/><path class="cls-2" d="M19.51,15.59a.9.9,0,0,1-.57-.22.37.37,0,0,0-.24-.08.16.16,0,0,0-.19.15h0c0,.08.07.13.23.17a.23.23,0,0,1,.15.07H19a.77.77,0,0,1,.47.2.89.89,0,0,1,.38.26c.06-.25.11-.51.15-.77,0,0,0,.05-.09.05A.46.46,0,0,1,19.51,15.59Z"/><path class="cls-2" d="M17,14.78h0l.07-.12h-.2v.05Z"/><path class="cls-2" d="M20,14.69H17.37l.07.06Z"/><path class="cls-2" d="M17.16,19.28l-1.66.79v.06h.05V14.69h1.61l.05-.06H15.48v5.55h0c1.39-.65,1.68-.8,1.71-.82a5.77,5.77,0,0,0,1.56-1.09h0A6,6,0,0,1,17.16,19.28Z"/><path class="cls-2" d="M19.29,17.49h0l.06-.09h0Z"/><path class="cls-2" d="M19.46,17.1h0v.16h0c.06-.12.11-.25.17-.38h-.08A.85.85,0,0,1,19.46,17.1Z"/><path class="cls-2" d="M15.47,20.13h0v-.06h-.05Z"/><path class="cls-2" d="M20.07,14.64h0v.22h0a.17.17,0,0,1,0,.1v-.32Z"/><path class="cls-2" d="M20,15.37c0,.26-.09.52-.15.77v.08a7.17,7.17,0,0,0,.18-.9Z"/><rect class="cls-2" x="15.13" y="14.3" width="5.27" height="0.02"/><path class="cls-1" d="M7.53,10.67a.31.31,0,0,0-.07.21h0a.83.83,0,0,1,.06-.21Z"/><polygon class="cls-1" points="8.83 6.94 8.83 6.94 8.81 6.95 8.76 7.02 8.74 7.05 8.76 7.05 8.83 6.94"/><path class="cls-1" d="M7.61,10.88c.13,0,.15-.05.18-.12h0l.12-.08.07,0,0-.05H8L8,10.7H8a.21.21,0,0,0,.16.21.23.23,0,0,1,.07-.19l.08-.12a.61.61,0,0,0,0-.19v-.16h0v.08h.05s.1,0,.15-.16V9.93h0v.15L8.6,10a.49.49,0,0,0,0-.17V9.69h0v.05h0l.1-.1h0V9.47a.38.38,0,0,1,0-.15v-.1a.13.13,0,0,1,.11-.14h.08L9,9l.15,0h.28l.06-.06-.06-.14h0a.79.79,0,0,1,.17.17c.38.58.52.71.77.78s.34.14.34.29a.81.81,0,0,1-.13.3l-.06.07a.22.22,0,0,1-.08.13.55.55,0,0,0-.1.35h.24l.07-.08h0V10.7h0v-.09h0l.07.14.25.15v-.1h0v-.06h0v-.29h0v-.12a.38.38,0,0,0,0-.15l.46-.18V10h.12V9.77H11.5a.4.4,0,0,1-.36-.27l-.08-.27A.78.78,0,0,0,10.84,9l-.09-.05h.05A.53.53,0,0,1,11,9a1.08,1.08,0,0,0,.31.07c.22,0,.35-.12.35-.3a.59.59,0,0,0-.18-.38l-.23-.23v.07h0l-.08-.08a.45.45,0,0,0-.36-.28h0V8h-.18V7.92a.43.43,0,0,0-.18-.15h-.16v.07l.06.08h0a1.1,1.1,0,0,1-.17-.15.36.36,0,0,1-.09-.24.32.32,0,0,1,.32-.32h0a.7.7,0,0,1,.34.1l.2.12a.84.84,0,0,0,.24.06h-.18l-.22-.1a.6.6,0,0,0-.15-.09h-.07l.17.07.19.06a.94.94,0,0,0,.3.07.14.14,0,0,0,.15-.13h0l0-.37h0v.08l-.08.1h-.1L11,7.09a1.58,1.58,0,0,0-.47-.1.55.55,0,0,0-.61.49v0c0,.33.25.55.86.76s.7.25.7.39-.11.15-.19.15h-.1l-.31-.07a3.73,3.73,0,0,0-.56-.07A1.14,1.14,0,0,0,9.43,9L9.29,9h-.1l-.12.06A.15.15,0,0,1,9,9.18H9c-.06,0-.07,0-.12-.14l-.1-.12-.09-.06h0l.07-.1v.17L8.8,9h0s.1-.11.12-.22,0-.12,0-.12h0v.14h0V8.55H9v-.1H9c0-.07-.07-.08-.1-.08H8.79a.51.51,0,0,1,.07-.17.8.8,0,0,0,.07-.34c0-.22,0-.37.08-.37v.22a.29.29,0,0,0,.12-.13V7.49h0L9,7.33H9V7.18H9V7a.41.41,0,0,0-.19.12l-.07.06h0V7.11h0a.34.34,0,0,0-.15-.23h0L8.48,7h0v.06H8.4v.22H8.34a.12.12,0,0,0-.12.12h0a.26.26,0,0,0,.07.22v.07h0v.44c0,.09,0,.14.07.15v.09h0c-.07,0-.09.05-.09.34a1.6,1.6,0,0,0,.09.53l.1.22v.1c0,.3-.44.79-.91,1a.59.59,0,0,0-.18.13h0a.83.83,0,0,0-.06.21h0A.35.35,0,0,1,7.61,10.88ZM9,7.53l.07-.07a.55.55,0,0,0,.15-.08H9.3a.72.72,0,0,1-.12.25.15.15,0,0,1-.08.12L9,7.68H9V7.53ZM9,7.9h.17L9.19,8c0,.08,0,.12-.13.32s0,.15-.1.15-.12,0-.17-.17l0-.13A.34.34,0,0,1,8.67,8l.07,0H9Zm-.35-.54h.05l.1.13h.07v.1c0,.07-.07.07-.09.07h0l-.1-.1A.28.28,0,0,1,8.61,7.36Z"/><path class="cls-1" d="M8,8.07v-.2H8V8a.17.17,0,0,0,0,.1v.1Z"/><path class="cls-1" d="M7.49,8.27h0c0,.1.1.23.27.35v.05h0v.05a.66.66,0,0,0,.09.19A.21.21,0,0,0,8,9.05l.2.08H8.05a.31.31,0,0,0,.06.13c0,.07.09.12.12.12h0V9.27a.36.36,0,0,1,.12-.08l.11,0h.09V9h0c-.09.1-.14.14-.21.14-.23,0-.42-.39-.42-.92v-.4a.74.74,0,0,0-.15-.5L7.7,7.26H7.64a1.22,1.22,0,0,1,0,.27v.18h0V8l-.06-.1c-.06-.1-.09-.13-.16-.13v.25a.91.91,0,0,0,.07.14Z"/><polygon class="cls-1" points="7.22 7.85 7.25 7.88 7.29 7.95 7.29 7.83 7.22 7.85"/><polygon class="cls-1" points="7.29 7.83 7.29 7.95 7.35 8.07 7.35 7.82 7.29 7.83"/><path class="cls-1" d="M7.66,10.29l.08.07h.07a.33.33,0,0,0,.31-.13H7.9a.25.25,0,0,0-.17,0,.31.31,0,0,0-.19.06h.12Z"/><path class="cls-1" d="M10.47,10.05a.29.29,0,0,1-.13-.27h0v-.4c0-.07,0-.09-.07-.09h0v.07H10.2l-.06.15c0,.1,0,.13.17.39a.63.63,0,0,1,.08.23c0,.17-.17.31-.49.38l-.2.05a.34.34,0,0,0-.28.3.37.37,0,0,1,.21,0h.08l.1,0,.16-.12H10v.07a.18.18,0,0,0-.07.15V11l.09-.11c.12-.11.19-.17.19-.24v-.17h0v.05h0l.07-.05v-.34h0v-.06h0Z"/><path class="cls-1" d="M9.51,10.54h.15l-.15,0a.14.14,0,0,0-.15,0l.13.12Z"/><path class="cls-1" d="M11.05,10.44H11c-.1,0-.18.07-.24.22H11l.08-.13Z"/><path class="cls-1" d="M11,10.44l-.08.13A.22.22,0,0,0,11,10.44Z"/><polygon class="cls-1" points="8.88 8.04 8.86 8.05 8.9 8.16 8.91 8.24 8.98 8.31 9.05 8.22 9.07 8.14 9.07 8.04 9.07 8.02 9.03 8 8.96 8.02 8.9 8.02 8.88 8.04"/><polygon class="cls-1" points="17.09 6.97 17.06 7.05 17.06 7.05 17.09 7.07 17.14 6.95 17.21 6.87 17.18 6.87 17.14 6.9 17.09 6.97"/><path class="cls-1" d="M16.76,7.11V7A.11.11,0,0,0,16.76,7.11Z"/><path class="cls-1" d="M16,10.58h0a.38.38,0,0,0-.17.36h0a.81.81,0,0,1,.07-.22Z"/><path class="cls-1" d="M16.77,8.53V8.36a.76.76,0,0,0,0,.3h0Z"/><path class="cls-1" d="M17.14,7v.12h-.05L16.84,7h0v.18h-.12a.12.12,0,0,0-.12.12.29.29,0,0,0,.07.22l.1.11V7.47h0v.46l.06.16c0,.09.06.14.06.16l.05.08H16.8v.33a1.13,1.13,0,0,0,0,.26h0v.26h0l.08.17v.1a1.24,1.24,0,0,1-.5.74h0l-.17.11-.27.16h-.08l-.09.13a.81.81,0,0,0-.07.22h.14c.14,0,.15-.05.19-.12h0l.12-.08.07,0,.05-.05h0l-.05.12h0a.21.21,0,0,0,.15.2v-.05a.24.24,0,0,1,.05-.14l.08-.12v-.35h0v.09h.05a.37.37,0,0,0,.15-.15V9.87h0V10l.05,0c.06,0,.13-.13.15-.27s0-.12,0-.12h0v0H17v-.1h0l-.05-.08a.52.52,0,0,1,.1-.26c.07-.12.09-.13.1-.13h0v.06h.08l.12-.05.15,0h.27L17.8,9V8.87h0A.79.79,0,0,1,18,9c.36.54.53.71.78.78s.34.13.34.29a.64.64,0,0,1-.14.3.12.12,0,0,1-.06.1h0a.69.69,0,0,0-.18.43H19l.06-.08v-.09h0l.07-.11h0l.06.14a1.35,1.35,0,0,0,.26.15v-.39l0-.07-.05-.12h0v-.12a.25.25,0,0,0-.08-.22l-.07,0h.05V9.76c0-.1,0-.13-.05-.13H19a.41.41,0,0,1-.35-.27l.61-.26c0-.08-.1-.17-.22-.25H19a1.32,1.32,0,0,1,.39.06.94.94,0,0,0,.3.07c.22,0,.36-.1.36-.29a.6.6,0,0,0-.29-.47h0l-.09-.08a.44.44,0,0,0-.35-.27h-.06V8H19V7.91a.65.65,0,0,0-.18-.15h-.12v.08h0s-.08,0-.17-.15a.35.35,0,0,1-.08-.24.32.32,0,0,1,.32-.32h0a.7.7,0,0,1,.34.1l.22.12a.72.72,0,0,0,.25.07h.19a1,1,0,0,1-.44-.17.19.19,0,0,1-.15-.08h-.07l.19.07.18.07a1.55,1.55,0,0,0,.31.06A.12.12,0,0,0,20,7.26V7.12L19.88,7v0h0V7l-.08.09h-.07L19.29,7a1.28,1.28,0,0,0-.47-.1.55.55,0,0,0-.61.49v0c0,.34.23.54.88.76s.69.26.69.41-.08.15-.2.15h-.1l-.31-.07a2.74,2.74,0,0,0-.56-.06,1.14,1.14,0,0,0-.89.27l-.14,0h-.1L17.36,9l-.07.1h-.05s-.07,0-.12-.13L17,8.85l-.1-.07h0V8.66h0V8.9L17,9h0a.39.39,0,0,0,.12-.22c0-.12,0-.12,0-.12l.07.08.05.07h.05l.07-.11h0V8.63h0l.06.06h.15l0-.11h0a.08.08,0,0,0-.08-.08h-.07a.23.23,0,0,1,.07-.17A1,1,0,0,0,17.49,8V7.61h0V7.7h.07V7.49c0-.1,0-.13-.18-.17h0v-.1h0V7h0a.24.24,0,0,0-.11.09l-.07.07v-.1a.27.27,0,0,0-.12-.22h0Zm.27.56.07-.07.15-.06h.06a.84.84,0,0,1-.12.23.18.18,0,0,1-.1.14l0-.07V7.56Zm-.1.39h.12l.07,0h0l.1.1-.09.12-.05.19a.14.14,0,0,1-.13.13s-.12,0-.17-.17V8.14A.34.34,0,0,1,17.11,8l.06-.07h.12Zm-.08-.35v.17h0l-.1,0-.07-.1,0-.12V7.43h0l.11.08h.06Z"/><path class="cls-1" d="M16.4,8.07v-.2l-.11-.07v.4Z"/><path class="cls-1" d="M16.78,9h0c-.07.09-.13.14-.2.14-.26,0-.43-.38-.43-.93V7.72A.81.81,0,0,0,16,7.27l-.07-.06h0v.37l.08.14h0V8h0s0,0-.08-.1-.07-.14-.14-.14h-.13a.8.8,0,0,1,.13.22c.09.16.11.19.22.24v.07H16c0,.11.1.24.27.36h0v0a.36.36,0,0,0,.08.19.29.29,0,0,0,.15.14l.21.08h-.38a.18.18,0,0,0,.06.13.13.13,0,0,0,.12.12h0V9.24l.12-.08.11-.05c.11,0,.12,0,.12-.07h0V9Z"/><path class="cls-1" d="M16.84,9.12V9h0a.53.53,0,0,0,.06.24v0h0Z"/><path class="cls-1" d="M16.29,10.19a.25.25,0,0,0-.17,0,.28.28,0,0,0-.18.06H16l.08.07h.07a.15.15,0,0,0,.13,0l.15-.12Z"/><path class="cls-1" d="M16.46,10.25l-.15.12.17-.11Z"/><path class="cls-1" d="M18.67,9.78h0V9.65l-.06-.14V9.43c0-.07,0-.09-.06-.09h-.06l-.07.07h-.06a.42.42,0,0,0-.07.15s0,.13.17.39a.63.63,0,0,1,.08.23c0,.17-.18.33-.49.38s-.44.12-.47.34h.28l.11-.05.15-.12h.12v.07l-.07.14v.16l.08-.11c.12-.11.19-.17.19-.24v-.17h0v.05h0s0,0,.1-.11V10.2h.06v-.06h-.07A.32.32,0,0,1,18.67,9.78Z"/><path class="cls-1" d="M17.89,10.54H18v0h-.13a.31.31,0,0,0-.19,0l.14.12Z"/><path class="cls-1" d="M19.41,10.44h-.08c-.1,0-.19.07-.22.22h.2l.08-.1h0Z"/><polygon class="cls-1" points="17.28 8.24 17.33 8.31 17.41 8.22 17.43 8.14 17.43 8.04 17.43 8.02 17.4 8 17.33 8.02 17.28 8.02 17.25 8.04 17.23 8.05 17.26 8.16 17.28 8.24"/><path class="cls-1" d="M8.71,18.1h.07l.1-.09v-.07H9v.15a.34.34,0,0,0,.07.24v0l.08-.12a.62.62,0,0,0,.12-.26h0v-.11h0l.07-.08v-.26h0l.07-.05.07-.12h0c-.09-.07-.16-.15-.16-.22v-.27h0V17h.07a1,1,0,0,1,.31-.08l.16.05h0v-.12h0c.07,0,.19.2.29.54s.1.29.37.44.31.24.31.44a2.35,2.35,0,0,1-.17.74.41.41,0,0,0,0,.22.37.37,0,0,0,0,.21v.13l.06-.07a.36.36,0,0,0,.09-.22v-.2l.53-.06h0l.07.07.1.06V19a.48.48,0,0,0-.1-.28l0-.09h.08v-.1a.5.5,0,0,0-.09-.24v-.07h0v-.39h0c-.22,0-.32-.14-.38-.5s-.13-.44-.27-.47-.1,0-.1-.05h.08a1.19,1.19,0,0,0,.46.1.35.35,0,0,0,.38-.33h0a.57.57,0,0,0-.21-.4l-.11-.07h0v.07h0l-.08-.11a.44.44,0,0,0-.31-.17H10.7V16h0l-.13-.12a.76.76,0,0,0-.32-.17h0v.07h0a.29.29,0,0,1-.19-.11.45.45,0,0,1-.24-.38.28.28,0,0,1,.27-.29h0a.51.51,0,0,1,.31.11l.22.15a.62.62,0,0,0,.35.12h.07l-.19-.07-.22-.17L10.47,15c-.12,0-.14-.06-.14-.08h0l.12.05.18.1a.86.86,0,0,0,.51.21.21.21,0,0,0,.23-.2V15h0v.08h0v.06h-.09a.73.73,0,0,1-.35-.15,1.16,1.16,0,0,0-.56-.21.56.56,0,0,0-.58.54h0c0,.42.27.61,1.14.79.32.07.47.15.47.29s-.1.2-.27.2H11l-.46-.12a2.39,2.39,0,0,0-.59-.08.88.88,0,0,0-.73.3h0l-.07-.05L9,16.63H8.9a.33.33,0,0,1-.1-.12.59.59,0,0,1-.07-.29v-.07h0v.12a.13.13,0,0,0,.09.11l.06-.05v.09h.06A.24.24,0,0,0,9,16.28v-.1H9l.07.05h.07l-.06-.07A.56.56,0,0,1,9,16l0-.05H9l.09-.1v-.12a.17.17,0,0,1,0-.14v-.15a.59.59,0,0,1,.07-.29h0v.22l.06-.07V15.1A.13.13,0,0,0,9.07,15H9v-.05H9l.29.08-.07.06h0V15h0c0-.05,0-.1-.12-.21h0V15h0a.36.36,0,0,0-.18-.12h0v.27h0a.11.11,0,0,0-.13.11h0s0,.08.1.2l.1.1v-.19H9a.71.71,0,0,1,.1.26V16a.27.27,0,0,0,.11.15l.07.07H9.18c-.09,0-.12.05-.12.18a.79.79,0,0,0,.27.55l.2.15a.46.46,0,0,1,.19.3c0,.12-.14.26-.39.34l-.15.05c-.11,0-.15.12-.19.28h.09Zm.46-2.75h.08l.07,0h0v.07l-.1.1-.05.1h0v-.22Zm-.49,0v-.07h.06c.14,0,.16.05.16.1v.13h0l-.11-.07v-.07Zm.1.51v-.12l.07-.09h.27l.07.07a.75.75,0,0,1-.1.2.18.18,0,0,1-.16.17c-.06,0-.07,0-.15-.19Z"/><path class="cls-1" d="M9.73,18.83h.06l.12-.09v-.06h0v.16A.47.47,0,0,0,10,19a.35.35,0,0,1,.08-.13c.07-.11.1-.16.1-.21v-.15h0V18.3h0v-.05h0c-.09-.05-.12-.13-.12-.3v-.24c0-.06-.05-.13-.08-.19L10,17.37v-.05a.22.22,0,0,0-.22.22h0a.83.83,0,0,0,.1.34,1.4,1.4,0,0,1,.1.35c0,.16-.07.22-.29.31a.52.52,0,0,0-.42.44h.05Z"/><path class="cls-1" d="M7.69,16h-.1v.14l0,.11.07.07H7.8v.05h0a.25.25,0,0,0,.09.17c.09.08.12.12.2.12h.07l-.09.05v.1l.09.07h.07l.13-.1c.15,0,.19-.06.19-.09v-.05a.31.31,0,0,1-.07-.2v-.09h0l-.16.08c-.15,0-.34-.24-.44-.54a.81.81,0,0,1,0-.22,1.13,1.13,0,0,1,0-.26,1.17,1.17,0,0,0,0-.2v-.05a.44.44,0,0,0-.23-.34v.24a.81.81,0,0,0,0,.22v.1h0l-.17-.07h0v.2l.1.14Z"/><path class="cls-1" d="M7.41,15.54v.05l.07.15h0v-.2Z"/><path class="cls-1" d="M8.1,15.76,8,15.62a.55.55,0,0,0-.07.28V16h0v-.13Z"/><path class="cls-1" d="M8.79,17.54l-.11-.07a.28.28,0,0,0-.17.07h0c.08.08.1.1.13.1h.17l-.06-.05Z"/><path class="cls-1" d="M9.76,18.37h.12c-.12-.05-.13-.05-.17-.05a.37.37,0,0,0-.2.12h.15Z"/><path class="cls-1" d="M11,18.72h-.21a.3.3,0,0,0-.17.24v.1c0-.07.05-.09.16-.09s.22-.2.22-.34H11Z"/><path class="cls-1" d="M9.1,16v-.07H9V16l.09.19h0A1.65,1.65,0,0,1,9.1,16Z"/><path class="cls-1" d="M19.48,16.13h0A.49.49,0,0,1,19.4,16a.37.37,0,0,0-.22-.22H19v.14h0l-.1-.1a.55.55,0,0,0-.2-.15h-.07a.47.47,0,0,1-.17-.14.42.42,0,0,1-.12-.25.35.35,0,0,1,.34-.31h.12l.15.07.19.11a.66.66,0,0,0,.34.12h.13l.07-.06H19.6a.61.61,0,0,1-.27-.12l-.2-.12-.19-.07h0l.17.05.2.08a.77.77,0,0,0,.39.14.17.17,0,0,0,.19-.15h0v-.12h0V15c0,.08,0,.1-.12.1a1.39,1.39,0,0,1-.41-.12,1.31,1.31,0,0,0-.47-.12.59.59,0,0,0-.63.56c0,.25.19.46.54.59l.37.15c.33.12.45.21.45.33s-.09.15-.24.15a1,1,0,0,1-.29-.07,2.76,2.76,0,0,0-.8-.15,1,1,0,0,0-.76.27h-.24l-.1.05v.05h0l-.12-.12-.05-.1v-.35h0v.12c0,.12,0,.23.11.23s.08-.06.11-.22v0l.07.13h.05a.23.23,0,0,0,.08-.17l.06-.09h0l.05.05h0a.38.38,0,0,1-.09-.13v-.1h-.1V16a.57.57,0,0,0,.2-.44.62.62,0,0,1,.09-.26h0v.16h0l.05-.05.07-.17v-.1h-.19V15h-.12c-.07.07-.07.07-.1.07h0v0a.58.58,0,0,0-.12-.25.41.41,0,0,0-.13.27h0L17.16,15l-.07,0h0a.48.48,0,0,0-.07.2v.07h-.1a.12.12,0,0,0-.14.12v.15a.53.53,0,0,0,.12.14V15.4h0a.65.65,0,0,1,.1.34.66.66,0,0,0,.17.4v.05H17.1l-.1.1v.57a1.13,1.13,0,0,0,0,.26v.2a.56.56,0,0,1-.44.53l-.28.08a.35.35,0,0,0-.29.37.25.25,0,0,1,.13-.05h.17l.05-.05.07-.09h.07v.17s0,.08.07.17V18.4l.07-.09a.4.4,0,0,0,.1-.18V18h0l.07-.07v-.2l.05.05h0l.09-.15v-.15h0l.08.08h0l.09-.07v-.05h0a.31.31,0,0,1,.07-.21l0-.1h0v.11h.27c.17-.1.22-.12.3-.12a.63.63,0,0,1,.22.07h0v-.15h0s0,.06.1.17a.51.51,0,0,0,.29.25l.19.05c.07,0,.08,0,.08.1a.37.37,0,0,1-.18.32l-.16.11a.23.23,0,0,0-.1.22.81.81,0,0,0,0,.22h.09l.06-.07v-.17l.05-.07v.07h0l.05.08.13-.15a.44.44,0,0,0,.06-.16V18h0l.05-.08h0v-.17h.07s.05,0,.07-.1v-.07h.38a.33.33,0,0,1-.25-.12l-.12-.15-.12-.13-.1-.07h0a.63.63,0,0,1,.23.08,1.4,1.4,0,0,0,.46.1.47.47,0,0,0,.22-.07c.05-.11.1-.21.14-.32h0a.78.78,0,0,0-.16-.28Zm-2.19-.64V15.4h.08l.1-.05h0v.08l-.1.09-.05.1h-.05Zm-.39-.2H17l.08.05c.07,0,.1,0,.1.06v.12l-.07.07a.59.59,0,0,1-.12-.12l-.07-.17Zm0,.5.05-.08H17l.07,0h.17l.07.08c0,.07,0,.12-.12.22l-.05.11-.1.06s-.08,0-.15-.17a.5.5,0,0,1,0-.27Z"/><path class="cls-1" d="M19.58,16.82a.38.38,0,0,0,.17-.28v-.08h0Z"/><path class="cls-1" d="M18.85,18.13h0v-.05l0-.07V18l-.13.15A.08.08,0,0,0,18.85,18.13Z"/><path class="cls-1" d="M17.43,17.74v.19a1.41,1.41,0,0,1,.06.22c0,.2-.33.47-.94.76-.3.15-.39.24-.39.44v.1c.06-.05.07-.05.23-.08a.23.23,0,0,0,.2-.19c0-.08,0-.1.12-.15h.05v.16a.26.26,0,0,0,0,.17.34.34,0,0,1,.12-.12.44.44,0,0,0,.14-.29v-.1h0v.06h0l.07-.05a.61.61,0,0,0,0-.19v-.05h0v.09h0l.06-.07v-.2h.05l.09-.07h0v-.05h0a.37.37,0,0,1-.1-.28.74.74,0,0,1,.22-.48.66.66,0,0,0,.15-.34h-.19l-.06.05h0l-.09.13-.08.07A.52.52,0,0,0,17.43,17.74Z"/><path class="cls-1" d="M16.36,16.71c-.2,0-.32-.22-.32-.59a2.81,2.81,0,0,1,.07-.65v-.12a.45.45,0,0,0-.22-.37v.29a.31.31,0,0,0,.07.2v.14h0a.15.15,0,0,0-.13,0h-.09a.88.88,0,0,1,0,.15c0,.14,0,.16.12.23S16,16,16,16h0l-.05.09v.15H16v0h0v.17l.05.08.06.05h-.06v.13c0,.07,0,.12.06.12h0a.71.71,0,0,1,.18.12h.22v-.42h0A.27.27,0,0,1,16.36,16.71Z"/><polygon class="cls-1" points="16.28 15.86 16.35 15.73 16.33 15.68 16.26 15.61 16.23 15.69 16.23 15.76 16.21 15.83 16.21 15.89 16.21 15.93 16.25 15.89 16.28 15.86"/><path class="cls-1" d="M16.09,17.64H16l-.18.05.1.06a.19.19,0,0,0,.17.09h.17l-.09-.07Z"/><path class="cls-1" d="M16.75,18.76c.09-.05.12-.09.12-.1a.15.15,0,0,0-.13-.06.29.29,0,0,0-.32.26h0v.07l.2-.1Z"/><path class="cls-1" d="M18.29,17.83h.33a.09.09,0,0,0,.1-.08s0,0-.12,0A.29.29,0,0,0,18.29,17.83Z"/><path class="cls-1" d="M17.29,15.91v-.07h-.12v.07h0V16l.07.06A.23.23,0,0,1,17.29,15.91Z"/><rect class="cls-2" x="12.23" y="12" width="0.42" height="0.08"/><rect class="cls-2" x="14.62" y="12.17" width="0.46" height="0.02"/><rect class="cls-2" x="12.89" y="12.01" width="0.63" height="0.08" transform="translate(-0.82 0.97) rotate(-4.08)"/><path class="cls-2" d="M14.62,12.24c0,.08,0,.12-.12.12a.12.12,0,0,1-.12-.12v-.05h-.61v.05c0,.06,0,.1-.12.1a.09.09,0,0,1-.11-.09h0v-.05h-.65v.05c0,.08,0,.12-.12.12a.12.12,0,0,1-.11-.12v-.05h-.43v1.66h2.85V12.19h-.46Zm-2,1.41h-.09a.14.14,0,0,1-.16-.14h0a.16.16,0,0,1,.16-.15.15.15,0,0,1,.15.15.13.13,0,0,1,0,.15h0Zm-.09-1a.14.14,0,0,1-.16-.14h0a.16.16,0,0,1,.16-.15.15.15,0,0,1,.15.15.15.15,0,0,1-.11.18h0Zm1.11.66A.86.86,0,0,1,13,13a.9.9,0,0,1,.68-.28.92.92,0,0,1,.66.29.78.78,0,0,1-.64.35Zm1.22.3h-.1a.15.15,0,0,1,0-.3.15.15,0,0,1,.15.15.13.13,0,0,1,0,.18h0Zm-.1-1.26a.15.15,0,0,1,.15.15.15.15,0,0,1-.13.15h0a.15.15,0,0,1-.15-.15.14.14,0,0,1,.16-.11Z"/><rect class="cls-2" x="12.23" y="12.17" width="0.42" height="0.02"/><rect class="cls-2" x="13.77" y="12.17" width="0.61" height="0.02"/><rect class="cls-2" x="13.77" y="12" width="0.61" height="0.08"/><rect class="cls-2" x="12.89" y="12.17" width="0.64" height="0.02"/><rect class="cls-2" x="14.62" y="12" width="0.46" height="0.08"/><polygon class="cls-1" points="12.42 12.54 12.54 12.66 12.66 12.54 12.54 12.44 12.42 12.54"/><polygon class="cls-1" points="14.77 12.66 14.89 12.54 14.77 12.44 14.65 12.54 14.77 12.66"/><path class="cls-1" d="M12.63,13.65h0Z"/><path class="cls-1" d="M12.54,13.44l-.12.12a.12.12,0,0,0,.12.12l.12-.12Z"/><path class="cls-1" d="M14.87,13.65h0Z"/><rect class="cls-1" x="14.68" y="13.47" width="0.17" height="0.17" transform="translate(-5.26 14.41) rotate(-45)"/><path class="cls-1" d="M13,13a.86.86,0,0,0,.69.32.81.81,0,0,0,.64-.32,1,1,0,0,0-.67-.28A.91.91,0,0,0,13,13Zm.68.22A.68.68,0,0,1,13.1,13a.94.94,0,0,1,.54-.2.84.84,0,0,1,.54.2.72.72,0,0,1-.54.25Z"/><path class="cls-1" d="M13.29,13a.55.55,0,0,0,.31.08.72.72,0,0,0,.32-.08.71.71,0,0,0-.32-.07A.48.48,0,0,0,13.29,13Z"/><path class="cls-1" d="M12.89,12c0-.11,0-.17-.12-.17h0v.11H13Z"/><path class="cls-1" d="M12.66,12.24a.12.12,0,0,0,.11.12c.09,0,.12,0,.12-.12v-.05h-.23Z"/><rect class="cls-1" x="12.66" y="12" width="0.24" height="0.08"/><rect class="cls-1" x="12.66" y="12.17" width="0.24" height="0.02"/><rect class="cls-1" x="12.66" y="12.1" width="0.24" height="0.07"/><rect class="cls-1" x="12.66" y="12.08" width="0.24" height="0.02"/><path class="cls-1" d="M13.77,12c0-.11,0-.17-.12-.17a.14.14,0,0,0-.14.13v0Z"/><rect class="cls-1" x="13.53" y="12" width="0.25" height="0.08"/><path class="cls-1" d="M13.54,12.24a.09.09,0,0,0,.1.1h0c.09,0,.12,0,.12-.1v-.05h-.23Z"/><rect class="cls-1" x="13.54" y="12.18" width="0.24" height="0.02" transform="translate(-0.84 1.01) rotate(-4.11)"/><rect class="cls-1" x="13.52" y="12.11" width="0.24" height="0.07" transform="translate(-0.83 1) rotate(-4.07)"/><rect class="cls-1" x="13.53" y="12.08" width="0.24" height="0.02"/><path class="cls-1" d="M14.62,12c0-.11,0-.17-.12-.17h-.05V12h.17Z"/><rect class="cls-1" x="14.38" y="12" width="0.24" height="0.08"/><rect class="cls-1" x="14.38" y="12.17" width="0.24" height="0.02"/><path class="cls-1" d="M14.38,12.24a.12.12,0,0,0,.12.12c.09,0,.12,0,.12-.12v-.05h-.24Z"/><rect class="cls-1" x="14.38" y="12.1" width="0.24" height="0.07"/><rect class="cls-1" x="14.38" y="12.08" width="0.24" height="0.02"/><rect class="cls-1" x="12.59" y="14.2" width="0.27" height="0.32"/><rect class="cls-1" x="12.59" y="14.61" width="0.27" height="0.1"/><rect class="cls-1" x="14.4" y="14.2" width="0.27" height="0.32"/><rect class="cls-1" x="14.4" y="14.61" width="0.27" height="0.1"/></svg>