<svg id="Layer_1" data-name="Layer 1" xmlns="http://www.w3.org/2000/svg" viewBox="0 0 44.87 29"><defs><style>.cls-1{fill:#fff;}</style></defs><path class="cls-1" d="M37.58,9.93a3.42,3.42,0,0,0-2.78,1.3v-.39a.92.92,0,0,0-.91-.91h0a.93.93,0,0,0-.92.91V21.08a.93.93,0,0,0,.93.92h0a.93.93,0,0,0,.93-.92V17.47a3.69,3.69,0,0,0,2.78,1.2,4.08,4.08,0,0,0,4.1-4.08c0-.1,0-.2,0-.3a4.11,4.11,0,0,0-3.87-4.35ZM37.38,17a2.55,2.55,0,0,1-2.55-2.54v-.2a2.52,2.52,0,1,1,5-.63,2.22,2.22,0,0,1,0,.63A2.48,2.48,0,0,1,37.62,17h-.24Z"/><path class="cls-1" d="M27,18.67a3.38,3.38,0,0,0,2.78-1.29v.39a.92.92,0,0,0,.91.9h0a.89.89,0,0,0,.91-.89h0V7.53a.92.92,0,0,0-.92-.92h0a.93.93,0,0,0-.93.92v3.6A3.7,3.7,0,0,0,27,9.93a4.11,4.11,0,0,0-4.1,4.1c0,.1,0,.19,0,.29a4.12,4.12,0,0,0,3.89,4.34Zm.2-7.05a2.54,2.54,0,0,1,2.56,2.52,1.48,1.48,0,0,1,0,.21,2.52,2.52,0,1,1-5,.63,3.32,3.32,0,0,1,0-.63A2.49,2.49,0,0,1,27,11.63h.21Z"/><path class="cls-1" d="M20.86,6.21a1.32,1.32,0,1,0-.23,2.63h.23a1.32,1.32,0,0,0,0-2.63Z"/><path class="cls-1" d="M20.86,9.93h0a.93.93,0,0,0-.93.92v6.94h0a.92.92,0,0,0,.92.89h0a.93.93,0,0,0,.93-.89h0V10.85A.94.94,0,0,0,20.86,9.93Z"/><path class="cls-1" d="M10.34,13.28h0a1.61,1.61,0,0,1,1.76-1.45,1.53,1.53,0,0,1,.37.08,3.06,3.06,0,0,0-.32-4.14C10.46,6.11,7.33,5.5,3.31,7.29a8.18,8.18,0,0,0,6.6,6h-.4A6.82,6.82,0,0,0,5.6,14.62a7.15,7.15,0,0,0-2.45,4.61c.12,0,4.12.54,6.55-1.86a4.87,4.87,0,0,0,.67-.83l.16-.27h0a3,3,0,0,0-.11.9C10.48,18.75,12,22,18.09,22c0-.13.52-4-1-6a5,5,0,0,0-1.63-1.49,4.31,4.31,0,0,0-2.06-.45,1.6,1.6,0,0,1-2.12.81h0a1.6,1.6,0,0,1-.92-1.45Z"/></svg>