<svg width="33" height="32" viewBox="0 0 33 32" fill="none" xmlns="http://www.w3.org/2000/svg">
<g clip-path="url(#clip0)">
<rect x="8.6875" y="8" width="16" height="16" fill="white"/>
<path d="M16.6875 0C7.85229 0 0.6875 7.16479 0.6875 16C0.6875 24.8352 7.85229 32 16.6875 32C25.5227 32 32.6875 24.8352 32.6875 16C32.6875 7.16479 25.5227 0 16.6875 0ZM23.9929 12.4751C24 12.6326 24.0034 12.7908 24.0034 12.9497C24.0034 17.8025 20.3096 23.3984 13.5544 23.3987C11.4805 23.3987 9.55054 22.7908 7.92529 21.749C8.21265 21.783 8.50513 21.7998 8.80127 21.7998C10.522 21.7998 12.1055 21.2129 13.3625 20.2278C11.7549 20.198 10.3994 19.1362 9.93164 17.677C10.1555 17.72 10.3857 17.7434 10.6218 17.7434C10.957 17.7434 11.2817 17.6982 11.5903 17.614C9.90991 17.2776 8.64404 15.7925 8.64404 14.0142C8.64404 13.9976 8.64404 13.9827 8.64453 13.9673C9.1394 14.2424 9.70532 14.408 10.3079 14.4265C9.32178 13.7686 8.67358 12.6438 8.67358 11.3696C8.67358 10.6968 8.85547 10.0664 9.1709 9.52368C10.9819 11.7458 13.6885 13.2073 16.7407 13.3608C16.6777 13.0918 16.6453 12.8115 16.6453 12.5234C16.6453 10.4961 18.29 8.85132 20.3181 8.85132C21.3745 8.85132 22.3286 9.29785 22.9988 10.0117C23.8354 9.84668 24.6211 9.54102 25.3308 9.12036C25.0562 9.97754 24.4741 10.6968 23.7158 11.1516C24.4587 11.0627 25.1667 10.8657 25.8247 10.5732C25.3333 11.3098 24.71 11.9568 23.9929 12.4751Z" fill="black"/>
</g>
<defs>
<clipPath id="clip0">
<rect width="32" height="32" fill="white" transform="translate(0.6875)"/>
</clipPath>
</defs>
</svg>
